<?xml version="1.0" standalone="no"?>
<!DOCTYPE svg PUBLIC "-//W3C//DTD SVG 20010904//EN"
 "http://www.w3.org/TR/2001/REC-SVG-20010904/DTD/svg10.dtd">
<svg version="1.0" xmlns="http://www.w3.org/2000/svg"
 width="637.000000pt" height="630.000000pt" viewBox="0 0 637.000000 630.000000"
 preserveAspectRatio="xMidYMid meet">

<g transform="translate(0.000000,630.000000) scale(0.100000,-0.100000)"
fill="#ffffff" stroke="none">
<path d="M2590 5255 l0 -175 -175 0 -175 0 0 -1225 0 -1225 175 0 175 0 0
-175 0 -175 525 0 525 0 0 175 0 175 175 0 175 0 0 1225 0 1225 -175 0 -175 0
0 175 0 175 -525 0 -525 0 0 -175z m700 -350 l0 -175 175 0 175 0 0 -875 0
-875 -175 0 -175 0 0 -175 0 -175 -175 0 -175 0 0 175 0 175 -175 0 -175 0 0
875 0 875 175 0 175 0 0 175 0 175 175 0 175 0 0 -175z"/>
<path d="M1190 2805 l0 -525 175 0 175 0 0 -175 0 -175 175 0 175 0 0 -175 0
-175 525 0 525 0 0 -175 0 -175 -525 0 -525 0 0 -175 0 -175 1225 0 1225 0 0
175 0 175 -525 0 -525 0 0 175 0 175 525 0 525 0 0 175 0 175 175 0 175 0 0
175 0 175 175 0 175 0 0 525 0 525 -175 0 -175 0 0 -350 0 -350 -175 0 -175 0
0 -175 0 -175 -175 0 -175 0 0 -175 0 -175 -875 0 -875 0 0 175 0 175 -175 0
-175 0 0 175 0 175 -175 0 -175 0 0 350 0 350 -175 0 -175 0 0 -525z"/>
</g>
</svg>
